<svg width="842" height="160" viewBox="0 0 842 160" fill="none" xmlns="http://www.w3.org/2000/svg">
<g clip-path="url(#clip0_2128_5589)">
<rect width="842" height="160" fill="white"/>
<path d="M0 79.0321V33.0081L58 0L128 39.8374L198 0L256 33.0081V79.0322L198 46.024L168.435 62.8494L256 112.683V158.707L58 46.024L0 79.0321Z" fill="#02D97E"/>
<path d="M824.822 74.5335C824.822 74.5335 823.832 73.9518 821.85 72.7884C819.869 71.625 817.247 70.3452 813.984 68.9491C810.721 67.4367 807.166 66.0988 803.32 64.9354C799.475 63.772 795.687 63.1903 791.958 63.1903C789.044 63.1903 786.655 63.6556 784.79 64.5864C782.926 65.5171 781.993 67.0877 781.993 69.2981C781.993 71.3923 782.926 73.0792 784.79 74.3589C786.655 75.6387 789.277 76.8021 792.657 77.8492C796.153 78.8962 800.29 80.176 805.068 81.6884C812.76 84.0152 819.403 86.691 824.997 89.7159C830.591 92.7407 834.903 96.6381 837.933 101.408C840.963 106.062 842.478 112.286 842.478 120.081C842.478 127.526 841.138 133.809 838.458 138.928C835.777 143.93 832.164 147.944 827.619 150.969C823.074 153.994 818.005 156.204 812.411 157.6C806.817 158.88 801.106 159.52 795.279 159.52C789.335 159.52 783.1 158.938 776.574 157.775C770.164 156.495 763.929 154.808 757.869 152.714C751.809 150.504 746.273 147.944 741.262 145.036L755.946 115.194C755.946 115.194 757.112 115.892 759.443 117.288C761.773 118.685 764.862 120.255 768.708 122C772.554 123.745 776.807 125.316 781.469 126.712C786.247 128.108 791.025 128.806 795.803 128.806C799.533 128.806 802.097 128.341 803.495 127.41C805.01 126.363 805.768 125.025 805.768 123.396C805.768 120.953 804.486 119.092 801.922 117.812C799.358 116.416 795.978 115.136 791.783 113.973C787.704 112.693 783.159 111.239 778.147 109.61C770.922 107.167 764.978 104.433 760.317 101.408C755.655 98.2669 752.217 94.6021 750.003 90.4139C747.789 86.1093 746.681 80.9322 746.681 74.8825C746.681 65.6916 748.837 58.0131 753.149 51.8471C757.461 45.6811 763.114 41.0275 770.106 37.8863C777.215 34.6288 784.849 33 793.006 33C799.067 33 804.894 33.7562 810.488 35.2686C816.198 36.6647 821.501 38.4098 826.396 40.5039C831.407 42.5981 835.777 44.5758 839.506 46.4373L824.822 74.5335Z" fill="black"/>
<path d="M668.616 160C658.569 160 649.94 158.345 642.73 155.036C635.52 151.726 629.61 147.175 625 141.383C620.508 135.591 617.199 128.972 615.071 121.525C612.943 113.96 611.88 106.041 611.88 97.7668V33.0514H646.454V97.7668C646.454 101.904 646.867 105.864 647.695 109.646C648.522 113.429 649.822 116.797 651.595 119.752C653.368 122.707 655.614 125.071 658.333 126.844C661.17 128.499 664.598 129.327 668.616 129.327C672.753 129.327 676.24 128.499 679.077 126.844C681.914 125.071 684.16 122.707 685.815 119.752C687.588 116.679 688.888 113.251 689.715 109.469C690.543 105.686 690.956 101.786 690.956 97.7668V33.0514H725.53V97.7668C725.53 106.514 724.348 114.67 721.984 122.235C719.739 129.799 716.311 136.419 711.701 142.092C707.091 147.766 701.181 152.199 693.971 155.39C686.879 158.463 678.427 160 668.616 160Z" fill="black"/>
<path d="M533.306 160C523.258 160 514.63 158.345 507.419 155.036C500.209 151.726 494.299 147.175 489.689 141.383C485.197 135.591 481.888 128.972 479.76 121.525C477.633 113.96 476.569 106.041 476.569 97.7668V33.0514H511.143V97.7668C511.143 101.904 511.556 105.864 512.384 109.646C513.211 113.429 514.511 116.797 516.285 119.752C518.058 122.707 520.303 125.071 523.022 126.844C525.859 128.499 529.287 129.327 533.306 129.327C537.443 129.327 540.93 128.499 543.766 126.844C546.603 125.071 548.849 122.707 550.504 119.752C552.277 116.679 553.577 113.251 554.405 109.469C555.232 105.686 555.646 101.786 555.646 97.7668V33.0514H590.22V97.7668C590.22 106.514 589.038 114.67 586.674 122.235C584.428 129.799 581 136.419 576.39 142.092C571.78 147.766 565.87 152.199 558.66 155.39C551.568 158.463 543.116 160 533.306 160Z" fill="black"/>
<path d="M453.165 33.0514V158.936H418.591V109.646H376.393V158.936H341.819V33.0514H376.393V79.5047H418.591V33.0514H453.165Z" fill="black"/>
<path d="M282 158.936V33.0514H316.574V158.936H282Z" fill="black"/>
</g>
<defs>
<clipPath id="clip0_2128_5589">
<rect width="842" height="160" fill="white"/>
</clipPath>
</defs>
</svg>
